<?xml version="1.0" encoding="UTF-8"?>
<svg xmlns="http://www.w3.org/2000/svg" xmlns:xlink="http://www.w3.org/1999/xlink" width="150pt" height="100pt" viewBox="0 0 150 100" version="1.1">
<g id="surface1">
<path style=" stroke:none;fill-rule:evenodd;fill:rgb(21.199036%,34.098816%,33.699036%);fill-opacity:1;" d="M 16.644531 20.914063 L 31.890625 20.914063 L 31.890625 36.859375 L 16.644531 36.859375 L 16.644531 20.914063 "/>
<path style=" stroke:none;fill-rule:evenodd;fill:rgb(21.199036%,34.098816%,33.699036%);fill-opacity:1;" d="M 16.644531 41.859375 L 31.890625 41.859375 L 31.890625 78.746094 L 16.644531 78.746094 L 16.644531 41.859375 "/>
<path style=" stroke:none;fill-rule:evenodd;fill:rgb(21.199036%,34.098816%,33.699036%);fill-opacity:1;" d="M 52.871094 63.074219 L 74.179688 63.074219 L 74.179688 78.746094 L 37.625 78.746094 C 37.625 66.453125 37.625 54.15625 37.625 41.859375 L 74.179688 41.859375 L 74.179688 57.804688 L 52.871094 57.804688 L 52.871094 63.074219 "/>
<path style=" stroke:none;fill-rule:evenodd;fill:rgb(100%,79.598999%,1.599121%);fill-opacity:1;" d="M 37.625 20.914063 L 74.179688 20.914063 L 74.179688 36.859375 L 37.625 36.859375 L 37.625 20.914063 "/>
<path style=" stroke:none;fill-rule:evenodd;fill:rgb(21.199036%,34.098816%,33.699036%);fill-opacity:1;" d="M 80.058594 20.914063 L 95.304688 20.914063 L 95.304688 41.859375 L 100.839844 41.859375 L 115.378906 20.914063 L 133.707031 20.914063 L 113.628906 49.925781 L 133.707031 78.941406 L 115.378906 78.941406 L 100.839844 57.996094 L 100.839844 57.804688 L 95.304688 57.804688 L 95.304688 78.746094 L 80.058594 78.746094 L 80.058594 20.914063 "/>
</g>
</svg>
