<?xml version="1.0" encoding="utf-8"?>
<!-- Generator: Adobe Illustrator 16.0.0, SVG Export Plug-In . SVG Version: 6.00 Build 0)  -->
<!DOCTYPE svg PUBLIC "-//W3C//DTD SVG 1.1//EN" "http://www.w3.org/Graphics/SVG/1.1/DTD/svg11.dtd">
<svg version="1.1" id="Layer_1" xmlns="http://www.w3.org/2000/svg" xmlns:xlink="http://www.w3.org/1999/xlink" x="0px" y="0px"
	 width="203.301px" height="85.04px" viewBox="0 0 203.301 85.04" enable-background="new 0 0 203.301 85.04" xml:space="preserve">
<g>
	<g>
		<g>
			<polygon points="42.961,31.89 61.373,42.52 73.646,0 			"/>
			<path d="M42.961,31.89"/>
		</g>
		<g>
			<polygon fill="#6C2B19" points="61.373,42.521 42.961,53.151 73.646,85.04 			"/>
			<path fill="#6C2B19" d="M42.961,53.15"/>
		</g>
		<polygon fill="#FFFFFF" points="42.961,53.15 61.373,42.52 42.961,31.89 		"/>
		<polygon fill="#00A7E7" points="73.646,85.039 0,42.52 42.961,53.15 		"/>
		<polygon fill="#C7017F" points="42.961,31.89 0,42.52 73.646,0 		"/>
		<polygon fill="#E30613" points="73.646,85.039 61.373,42.52 73.646,0 		"/>
		<polygon fill="#0D3880" points="0,42.52 42.961,53.15 42.961,31.89 		"/>
	</g>
	<path d="M87.049,38.057l3.743,12.285h2.88l3.743-12.285v12.285h2.784V34.697h-4.223l-3.744,12.094l-3.647-12.094h-4.319v15.645
		h2.783V38.057z M113.444,28.842c0.288,0.288,0.672,0.479,1.152,0.479h4.991c0.384,0,0.864-0.192,1.152-0.479l2.016-2.016
		l-1.536-1.824l-1.728,1.631c-0.096,0.096-0.192,0.096-0.384,0.096h-3.936c-0.096,0-0.192,0-0.288-0.096l-0.959-0.959
		c-0.096-0.096-0.096-0.192-0.096-0.288v-7.679c0-0.096,0-0.192,0.096-0.288l0.959-0.959c0.096-0.096,0.192-0.096,0.288-0.096h3.647
		c0.192,0,0.288,0,0.384,0.096l1.728,1.631l1.824-1.919l-2.016-2.016c-0.288-0.288-0.768-0.48-1.152-0.48h-4.991
		c-0.48,0-0.864,0.192-1.152,0.48l-1.92,1.919c-0.384,0.384-0.576,0.768-0.576,1.152v8.542c0,0.384,0.192,0.768,0.576,1.152
		L113.444,28.842z M109.125,58.117l-1.919-1.92c-0.288-0.288-0.672-0.48-1.152-0.48h-5.855c-0.384,0-0.768,0.192-1.152,0.48
		l-1.92,1.92c-0.288,0.384-0.479,0.768-0.479,1.152v8.542c0,0.384,0.192,0.768,0.479,1.151l1.92,1.92
		c0.384,0.288,0.768,0.48,1.152,0.48h5.855c0.48,0,0.864-0.192,1.152-0.48l1.919-1.92c0.384-0.384,0.576-0.768,0.576-1.151V59.27
		C109.701,58.885,109.509,58.501,109.125,58.117L109.125,58.117z M106.726,67.332c0,0.096,0,0.191-0.096,0.287l-0.959,0.96
		c-0.096,0.097-0.192,0.097-0.288,0.097h-4.416c-0.192,0-0.288,0-0.384-0.097l-0.864-0.96c-0.096-0.096-0.192-0.191-0.192-0.287
		v-7.584c0-0.096,0.096-0.191,0.192-0.287l0.864-0.96c0.096-0.097,0.192-0.097,0.384-0.097h4.416c0.096,0,0.192,0,0.288,0.097
		l0.959,0.96c0.096,0.096,0.096,0.191,0.096,0.287V67.332z M131.297,71.363h2.783V58.404h6.623v12.959h2.784V55.717h-12.19V71.363z
		 M157.98,58.117l-1.92-1.92c-0.384-0.288-0.768-0.48-1.151-0.48h-5.087c-0.385,0-0.768,0.192-1.152,0.48l-1.92,1.92
		c-0.287,0.384-0.479,0.768-0.479,1.152v12.094h2.784v-4.8h6.622v4.8h2.784V59.27C158.461,58.885,158.269,58.501,157.98,58.117
		L157.98,58.117z M155.677,64.068h-6.622v-4.32c0-0.096,0.096-0.191,0.191-0.287l0.863-0.96c0.097-0.097,0.192-0.097,0.385-0.097
		h3.743c0.192,0,0.288,0,0.384,0.097l0.863,0.96c0.097,0.096,0.192,0.191,0.192,0.287V64.068z M141.951,41.128h-6.719v-6.431h-2.783
		v15.645h2.783v-6.526h6.719v6.526h2.783V34.697h-2.783V41.128z M179.385,67.812V55.717h-2.783v15.646h3.839l5.567-12.094v12.094
		h2.783V55.717h-3.84L179.385,67.812z M159.229,37.097l-1.92-1.919c-0.288-0.288-0.672-0.48-1.152-0.48h-4.99
		c-0.48,0-0.864,0.192-1.152,0.48l-1.92,1.919c-0.383,0.384-0.575,0.768-0.575,1.152v12.093h2.783v-4.799h6.623v4.799h2.783V38.249
		C159.708,37.865,159.612,37.48,159.229,37.097L159.229,37.097z M156.925,43.047h-6.623v-4.319c0-0.096,0-0.192,0.097-0.288
		l0.959-0.96c0.096-0.096,0.192-0.096,0.288-0.096h3.936c0.096,0,0.192,0,0.288,0.096l0.959,0.96
		c0.097,0.096,0.097,0.192,0.097,0.288V43.047z M95.591,15.692l-1.536-1.536c-0.288-0.288-0.672-0.48-1.056-0.48h-8.734v15.645
		h2.783v-5.279H93c0.384,0,0.768-0.192,1.056-0.48l1.536-1.536c0.384-0.384,0.576-0.672,0.576-1.152v-4.031
		C96.167,16.364,95.976,15.98,95.591,15.692L95.591,15.692z M101.158,23.371c0.288,0.48,0.768,0.48,0.864,0.48h0.384l-2.784,5.471
		h3.072l7.679-15.645h-3.072l-3.551,7.487h-0.288c-0.192,0-0.288-0.192-0.384-0.384l-3.071-7.103h-3.456L101.158,23.371z
		 M128.706,47.654V34.697h-8.062c-0.48,0-0.864,0.192-1.152,0.48l-1.919,1.919c-0.384,0.384-0.48,0.768-0.48,1.152v9.406h-1.824
		v2.688h15.069v-2.688H128.706z M119.875,47.654v-8.83c0-0.096,0-0.192,0.096-0.288l1.152-1.152
		c0.096-0.096,0.192-0.096,0.288-0.096h4.511v10.366H119.875z M105.67,38.057l0.576-0.576c0.096-0.096,0.192-0.096,0.288-0.096
		h6.814v-2.688h-7.391c-0.384,0-0.768,0.192-1.056,0.48l-1.536,1.536c-0.384,0.288-0.576,0.672-0.576,1.152v9.31
		c0,0.479,0.192,0.864,0.576,1.151l1.536,1.536c0.288,0.288,0.672,0.479,1.056,0.479h7.391v-2.688h-6.814
		c-0.096,0-0.192,0-0.288-0.096l-0.576-0.576c-0.096-0.096-0.096-0.191-0.096-0.287V43.72h7.774v-2.592h-7.774v-2.784
		C105.574,38.249,105.574,38.152,105.67,38.057L105.67,38.057z M170.746,62.148h-6.719v-6.432h-2.783v15.646h2.783v-6.527h6.719
		v6.527h2.783V55.717h-2.783V62.148z M87.049,16.364h5.279c0.192,0,0.288,0,0.384,0.096l0.576,0.576
		c0.096,0.096,0.096,0.192,0.096,0.288v3.071c0,0.096,0,0.192-0.096,0.288l-0.576,0.576c-0.096,0.096-0.192,0.096-0.384,0.096
		h-5.279V16.364z M87.049,65.027h0.864c0.192,0,0.288,0.096,0.384,0.192l4.511,6.144h3.743L90.6,63.588l5.663-7.871h-3.455
		l-4.319,6.144c-0.288,0.384-0.384,0.575-0.576,0.575h-0.864v-6.719h-2.783v15.646h2.783V65.027z M194.742,55.717
		c-0.384,0-0.768,0.192-1.056,0.48l-1.632,1.535c-0.288,0.289-0.48,0.672-0.48,1.152v4.031c0,0.48,0.192,0.768,0.48,1.152
		l1.632,1.535c0.288,0.288,0.575,0.48,0.96,0.48h0.384l-4.128,5.279h3.264l3.84-5.088c0.096-0.096,0.191-0.191,0.384-0.191h2.111
		v5.279h2.784V55.717H194.742z M200.501,63.684h-4.991c-0.191,0-0.287,0-0.384-0.096l-0.672-0.672
		c-0.096-0.096-0.096-0.191-0.096-0.287v-3.264c0-0.096,0-0.192,0.096-0.289l0.576-0.575c0.096-0.097,0.192-0.097,0.384-0.097h5.087
		V63.684z M115.076,59.076l3.743,12.287h2.879l3.744-12.287v12.287h2.783V55.717h-4.223l-3.743,12.095l-3.647-12.095h-4.319v15.646
		h2.784V59.076z M162.972,16.076l-1.92-1.919c-0.288-0.288-0.672-0.48-1.151-0.48h-4.991c-0.479,0-0.864,0.192-1.151,0.48
		l-1.92,1.919c-0.385,0.384-0.576,0.768-0.576,1.152v12.094h2.783v-4.799h6.623v4.799h2.783V17.228
		C163.451,16.844,163.355,16.46,162.972,16.076L162.972,16.076z M160.668,22.027h-6.623v-4.319c0-0.096,0-0.192,0.096-0.288
		l0.961-0.959c0.096-0.096,0.191-0.096,0.287-0.096h3.936c0.096,0,0.191,0,0.288,0.096l0.96,0.959
		c0.096,0.096,0.096,0.192,0.096,0.288V22.027z M165.371,34.697c-0.384,0-0.768,0.192-1.056,0.48l-1.632,1.536
		c-0.288,0.288-0.48,0.672-0.48,1.152v4.031c0,0.479,0.192,0.768,0.48,1.151l1.632,1.537c0.288,0.287,0.576,0.479,0.96,0.479h0.384
		l-4.128,5.278h3.264l3.84-5.086c0.096-0.097,0.191-0.192,0.384-0.192h2.112v5.278h2.783V34.697H165.371z M171.131,42.664h-4.992
		c-0.191,0-0.287,0-0.383-0.096l-0.672-0.672c-0.097-0.096-0.097-0.192-0.097-0.288v-3.264c0-0.096,0-0.192,0.097-0.288l0.575-0.576
		c0.097-0.096,0.192-0.096,0.384-0.096h5.088V42.664z M169.115,13.677c-0.385,0-0.769,0.192-1.057,0.48l-1.631,1.536
		c-0.289,0.288-0.48,0.672-0.48,1.152v4.031c0,0.48,0.191,0.768,0.48,1.152l1.631,1.536c0.288,0.288,0.576,0.48,0.96,0.48h0.384
		l-4.127,5.279h3.264l3.839-5.087c0.097-0.096,0.192-0.192,0.384-0.192h2.111v5.279h2.784V13.677H169.115z M174.873,21.644h-4.99
		c-0.192,0-0.288,0-0.385-0.096l-0.672-0.672c-0.096-0.096-0.096-0.192-0.096-0.288v-3.263c0-0.096,0-0.192,0.096-0.288l0.576-0.576
		c0.096-0.096,0.192-0.096,0.385-0.096h5.086V21.644z M140.703,22.987h0.864c0.192,0,0.288,0.096,0.384,0.192l4.512,6.143h3.743
		l-5.951-7.774l5.663-7.871h-3.455l-4.319,6.143c-0.288,0.384-0.384,0.576-0.576,0.576h-0.864v-6.719h-2.783v15.645h2.783V22.987z
		 M126.882,28.842c0.288,0.288,0.672,0.479,1.152,0.479h4.991c0.383,0,0.864-0.192,1.152-0.479l2.016-2.016l-1.536-1.824
		l-1.728,1.631c-0.096,0.096-0.192,0.096-0.384,0.096h-3.935c-0.096,0-0.192,0-0.288-0.096l-0.96-0.959
		c-0.096-0.096-0.096-0.192-0.096-0.288v-7.679c0-0.096,0-0.192,0.096-0.288l0.96-0.959c0.096-0.096,0.192-0.096,0.288-0.096h3.647
		c0.192,0,0.288,0,0.384,0.096l1.728,1.631l1.823-1.919l-2.016-2.016c-0.288-0.288-0.769-0.48-1.152-0.48h-4.991
		c-0.48,0-0.864,0.192-1.152,0.48l-1.919,1.919c-0.384,0.384-0.576,0.768-0.576,1.152v8.542c0,0.384,0.192,0.768,0.576,1.152
		L126.882,28.842z"/>
</g>
</svg>
