<?xml version="1.0" encoding="utf-8"?>
<!-- Generator: Adobe Illustrator 19.2.1, SVG Export Plug-In . SVG Version: 6.00 Build 0)  -->
<svg version="1.1" id="layer" xmlns="http://www.w3.org/2000/svg" xmlns:xlink="http://www.w3.org/1999/xlink" x="0px" y="0px"
	 viewBox="0 0 652 652" style="enable-background:new 0 0 652 652;" xml:space="preserve">
<style type="text/css">
	.st0{fill:#231F20;}
	.st1{fill:#EC1C24;}
	.st2{fill:#FFFFFF;}
</style>
<path class="st0" d="M525.2,327.9c-2.4,2.8-4.9,4.6-9.1,4.6c-5.9,0-10.1-5-10.1-11.3c0-6.4,4.2-11.3,10.1-11.3
	c3.2,0,6.3,1.4,8.4,3.9l8.6-6.8c-3.7-4.6-8.9-7.8-16.9-7.8c-12.8,0-22.3,9.7-22.3,22c-0.3,11.9,9.1,21.8,21,22c0.3,0,0.6,0,0.8,0
	c8.8,0,14.1-3.6,18-8.6L525.2,327.9z M161.4,310.3h-12.7V300h37.2v10.3h-12.7v32.1h-11.7L161.4,310.3L161.4,310.3z M279,300h11.8
	v15.9h15.1V300h11.7v42.4h-11.7v-16.1h-15.1v16.1h-11.7L279,300z M326.7,300h11l17.4,22.4V300h11.6v42.4h-10.3l-18.1-23.2v23.2
	h-11.6V300z M373.6,321.2c0-12.2,9.8-22,22.9-22c13.1,0,22.7,9.8,22.7,22c0,12.3-9.8,22.1-22.9,22.1
	C383.3,343.2,373.6,333.5,373.6,321.2z M407.3,321.2c0-6.1-4.4-11.4-10.9-11.4c-6.5,0-10.7,5.2-10.7,11.4s4.4,11.4,10.8,11.4
	S407.3,327.4,407.3,321.2z M426.1,300h11l17.5,22.4V300h11.6v42.4h-10.3l-18.1-23.2v23.2h-11.6L426.1,300L426.1,300z M475.2,300
	h11.8v42.4h-11.8V300z M536.8,321.2c0-12.2,9.8-22,22.9-22c13.1,0,22.8,9.8,22.8,22c0,12.3-9.8,22-22.9,22
	C546.5,343.2,536.8,333.5,536.8,321.2z M570.4,321.2c0-6.1-4.4-11.4-10.9-11.4c-6.5,0-10.8,5.2-10.8,11.4s4.4,11.4,10.8,11.4
	S570.4,327.4,570.4,321.2z M589.3,300H601v32.1h20.5v10.3h-32.3L589.3,300z M263.6,327.9c-2.4,2.8-4.9,4.6-9.1,4.6
	c-5.9,0-10.1-5-10.1-11.3c0-6.4,4.2-11.3,10.1-11.3c3.2,0,6.3,1.4,8.4,3.9l8.6-6.8c-3.7-4.6-8.9-7.8-16.9-7.8
	c-12.8,0-22.3,9.7-22.3,22c-0.3,11.9,9.1,21.8,21,22c0.3,0,0.5,0,0.8,0c8.8,0,14.1-3.6,18-8.6L263.6,327.9z M192,300h34.1v10h-22.5
	v6.5H224v9.3h-20.4v6.7h22.8v10H192V300z"/>
<polygon class="st1" points="127.5,353 106.3,374.2 27.9,374.2 21.5,367.8 21.5,289.4 42.7,268.2 121.1,268.2 127.5,274.6 "/>
<polygon class="st2" points="121.1,268.2 97.3,292 97.3,326.8 77.7,300 36.6,300 36.6,308.4 48.7,308.4 48.7,340.6 21.5,367.8 
	21.5,374.2 27.9,374.2 57.9,344.2 57.9,308.4 70,308.4 70,342.4 79,342.4 79,315.5 98.5,342.4 106.3,342.4 106.3,295.8 127.5,274.6 
	127.5,268.2 "/>
</svg>
