<?xml version="1.0" encoding="UTF-8"?> <svg xmlns="http://www.w3.org/2000/svg" xmlns:xlink="http://www.w3.org/1999/xlink" width="467.69565152490975" height="178.86956150364995" xml:space="preserve"><rect id="backgroundrect" width="100%" height="100%" x="0" y="0" fill="none" stroke="none" style="" class="selected"></rect> <desc>Created with Fabric.js 3.6.3</desc> <defs> </defs> <g class="currentLayer" style=""><title>Layer 1</title><g style="" id="svg_1" class=""><path fill="#FFE11A" opacity="1" d="M263.9792679299255,108.23259975297037 L256.53926792992553,108.23259975297037 L241.7592679299255,93.46259975297039 L241.7592679299255,48.70259975297037 L226.8792679299255,48.70259975297037 L226.8792679299255,100.90259975297039 L249.09926792992553,123.11259975297037 L271.4192679299255,123.11259975297037 L293.6392679299255,100.90259975297039 L293.6392679299255,48.70259975297037 L278.8592679299255,48.70259975297037 L278.8592679299255,93.46259975297039 z" stroke-width="0" id="svg_2"></path><path fill="#FFE11A" opacity="1" d="M318.0792679299255,123.11259975297037 L318.0792679299255,72.94259975297038 L337.9592679299255,101.53259975297038 L350.3992679299255,101.53259975297038 L369.84926792992553,72.94259975297038 L369.84926792992553,123.11259975297037 L384.7292679299255,123.11259975297037 L384.7292679299255,48.70259975297037 L370.3792679299255,48.70259975297037 L344.0192679299255,84.74259975297039 L318.0792679299255,48.70259975297037 L303.1992679299255,48.70259975297037 L303.1992679299255,123.11259975297037 z" stroke-width="0" id="svg_3"></path><path fill="#FFE11A" opacity="1" d="M454.78926792992553,123.11259975297037 L462.1192679299255,115.78259975297038 L462.1192679299255,100.90259975297039 L447.34926792992553,100.90259975297039 L447.34926792992553,108.23259975297037 L410.2492679299255,108.23259975297037 L410.2492679299255,63.592599752970386 L447.34926792992553,63.592599752970386 L447.34926792992553,71.03259975297038 L462.1192679299255,71.03259975297038 L462.1192679299255,56.25259975297038 L454.78926792992553,48.70259975297037 L402.6992679299255,48.70259975297037 L395.3592679299255,56.25259975297038 L395.3592679299255,115.78259975297038 L402.6992679299255,123.11259975297037 z" stroke-width="0" id="svg_4"></path></g><g id="svg_5" class=""> <g style="" stroke-width="0" id="svg_6"> <g stroke-width="0" id="svg_7"> <path style="stroke: none; stroke-width: 1; stroke-dasharray: none; stroke-linecap: butt; stroke-dashoffset: 0; stroke-linejoin: miter; stroke-miterlimit: 4; fill: rgb(255,225,26); fill-rule: nonzero; opacity: 1;" d="M128.30389268584975,13.729740543171829 c4.227136101770567,-1.0454207563518603 6.908867607194903,1.386318829075293 9.181521425351121,5.704361083572109 c3.840784952684009,7.340671832644585 8.204280283543948,14.431351745291987 12.476869461677639,21.567484734302514 c1.5908576727093529,2.636278429061213 1.7726699781618502,4.908932247217432 0.13635922908937315,7.6815699053680175 c-8.181553745362386,13.908641367116058 -16.2267482616354,27.862735810595236 -24.226489701545287,41.86228333043754 c-1.7953965163434127,3.1589888072371437 -2.681731505424338,2.9544499636030843 -4.9316587853989935,0.06817961454468657 c-4.908932247217432,-6.2952510762927245 -4.6816668654018105,-11.704167163504525 -0.09090615272624879,-18.294863236157557 c5.386189549030237,-7.7270229817311415 9.499692959892991,-16.317654414361648 14.340445592565738,-24.431028545179352 c1.363592290893731,-2.2953803563377804 1.227233061804358,-4.045323796318069 -0.09090615272624879,-6.2497979999296005 c-4.431674945404626,-7.4088514471892735 -8.74971719990144,-14.885882508923231 -12.976853301672007,-22.408366647020312 c-2.840817272695273,-5.068018014488367 -2.568098814516527,-5.431642625393361 3.4544338035974516,-5.477095701756487 C126.19032463496444,13.729740543171829 126.84939424222978,13.729740543171829 128.30389268584975,13.729740543171829 z" stroke-linecap="round" stroke-width="0" id="svg_8"></path> </g> <g stroke-width="0" id="svg_9"> <path style="stroke: none; stroke-width: 1; stroke-dasharray: none; stroke-linecap: butt; stroke-dashoffset: 0; stroke-linejoin: miter; stroke-miterlimit: 4; fill: rgb(255,225,26); fill-rule: nonzero; opacity: 1;" d="M175.0296555720847,84.9092488183725 c3.0226295781477712,3.1135357308740192 2.2726538181562184,6.681602225379281 -0.3181715345418705,10.795105636242038 c-4.408948407223063,7.022500298102714 -8.340639512633322,14.363172130747301 -12.340510232588265,21.6356643488472 c-1.4772249818015422,2.681731505424338 -3.3635276508712035,3.9998707199549446 -6.56796953447147,3.9998707199549446 c-16.11311557072759,-0.06817961454468657 -32.24895767963674,0 -48.36207325036433,0.13635922908937315 c-3.6362461090499494,0.02272653818156219 -3.9089645672286952,-0.8181553745362387 -2.545372276334964,-4.249862639952128 c2.977176501784646,-7.4088514471892735 7.7724760580942664,-9.931497185342675 15.749490959822593,-9.295154116258933 c9.386060268985181,0.7727022981731143 18.885753228878173,-0.02272653818156219 28.31726657422648,0.09090615272624879 c2.659004967242775,0.02272653818156219 4.113503410862756,-0.9545146036256118 5.363463010848676,-3.2271684217818297 c4.15895648722588,-7.567937214460207 8.454272203541134,-15.044968276194167 12.840494072582633,-22.499272799746564 c2.9544499636030843,-5.022564938125243 3.4089807272343275,-4.954385323580556 6.477063381745222,0.22726538181562192 C173.98423481573283,83.09112576384751 174.30240635027468,83.63656268020503 175.0296555720847,84.9092488183725 z" stroke-linecap="round" stroke-width="0" id="svg_10"></path> </g> <g stroke-width="0" id="svg_11"> <path style="stroke: none; stroke-width: 1; stroke-dasharray: none; stroke-linecap: butt; stroke-dashoffset: 0; stroke-linejoin: miter; stroke-miterlimit: 4; fill: rgb(255,225,26); fill-rule: nonzero; opacity: 1;" d="M137.05360070364924,161.08861550291545 c-1.1590534472596712,4.181683025407441 -4.636213789038685,5.340736472667113 -9.476966421711431,5.158924167214615 c-8.295186436270196,-0.27271845817874624 -16.613099410721954,0.02272653818156219 -24.90828584699215,0.22726538181562192 c-3.068082654510895,0.06817961454468657 -5.136197629033054,-0.886334989080925 -6.749781839923968,-3.6589726472315123 c-8.067921054454576,-13.95409444347918 -16.249474799816962,-27.862735810595236 -24.476481621542472,-41.72592410134817 c-1.8635761308880991,-3.1362622690555817 -1.24995959998592,-3.7953318763208843 2.3862865090640293,-4.318042254496815 c7.908835287183639,-1.1590534472596712 12.499595999859201,1.7044903636171638 15.954029803456654,8.931529505353938 C93.85045162049953,134.20312083412745 99.30482078407445,142.0210499685848 103.9637611112947,150.22533025212874 c1.3181392145306066,2.3181068945193424 2.90899688723996,3.068082654510895 5.499822239938048,2.999903039966208 c8.63608450899363,-0.20453884363405966 17.27216901798726,-0.27271845817874624 25.885526988799327,-0.22726538181562192 c5.81799377447992,0.02272653818156219 5.977079541750855,0.4545307636312438 3.068082654510895,5.704361083572109 C138.0990214600011,159.27049244839054 137.78084992545922,159.83865590292953 137.05360070364924,161.08861550291545 z" stroke-linecap="round" stroke-width="0" id="svg_12"></path> </g> <g stroke-width="0" id="svg_13"> <path style="stroke: none; stroke-width: 1; stroke-dasharray: none; stroke-linecap: butt; stroke-dashoffset: 0; stroke-linejoin: miter; stroke-miterlimit: 4; fill: rgb(255,225,26); fill-rule: nonzero; opacity: 1;" d="M52.12453050377956,166.65662018993288 c-4.204409563589004,1.0908738327149847 -6.931594145376466,-1.3181392145306066 -9.226974501714247,-5.590728392664298 c-3.931691105410258,-7.295218756281462 -8.386092588996446,-14.340445592565738 -12.726861381674823,-21.408398967031577 c-1.6135842108909149,-2.613551890879651 -1.8181230545249747,-4.8862057090358695 -0.22726538181562192,-7.6815699053680175 c7.999741439909889,-13.999547519842306 15.885850188911968,-28.067274654229298 23.726505861550923,-42.15772832679785 c1.7726699781618502,-3.1817153454187057 2.636278429061213,-2.999903039966208 4.9316587853989935,-0.11363269090781095 c4.9771118617621175,6.2497979999296005 4.8180260944911835,11.6587140871414 0.3181715345418705,18.294863236157557 c-5.295283396303989,7.7952025962758285 -9.295154116258933,16.431287105269462 -14.045000596205428,24.590114312450282 c-1.340865752712169,2.3181068945193424 -1.1817799854412336,4.06805033449963 0.15908576727093532,6.2497979999296005 c4.522581098130874,7.340671832644585 8.908802967172377,14.77224981801542 13.249571759850753,22.249280879749378 c2.90899688723996,5.045291476306804 2.636278429061213,5.4089160872118 -3.3862541890527655,5.522548778119611 C54.21537201648329,166.63389365175135 53.556302409217984,166.63389365175135 52.12453050377956,166.65662018993288 z" stroke-linecap="round" stroke-width="0" id="svg_14"></path> </g> <g stroke-width="0" id="svg_15"> <path style="stroke: none; stroke-width: 1; stroke-dasharray: none; stroke-linecap: butt; stroke-dashoffset: 0; stroke-linejoin: miter; stroke-miterlimit: 4; fill: rgb(255,225,26); fill-rule: nonzero; opacity: 1;" d="M4.557888065795115,96.04526078772801 c-3.068082654510895,-3.090809192692457 -2.3635599708824673,-6.65887568719772 0.18181230545249757,-10.795105636242038 c4.340768792678378,-7.06795337446584 8.181553745362386,-14.45407828347355 12.090518312591083,-21.794750116118134 c1.45449844361998,-2.7044580436059 3.2953480363265166,-4.045323796318069 6.5225164581083455,-4.06805033449963 c16.11311557072759,-0.11363269090781095 32.24895767963674,-0.3863511490865572 48.36207325036433,-0.7045226836284277 c3.6362461090499494,-0.06817961454468657 3.9089645672286952,0.7727022981731143 2.590825352698089,4.204409563589004 c-2.886270349058397,7.454304523552396 -7.636116829004894,10.022403338068923 -15.635858268914781,9.476966421711431 c-9.386060268985181,-0.6590696072653035 -18.885753228878173,0.22726538181562192 -28.31726657422648,0.24999191999718406 c-2.659004967242775,0 -4.113503410862756,1.0226942181702983 -5.31800993448555,3.2953480363265166 c-4.06805033449963,7.6133902908233315 -8.272459898088634,15.158600967101977 -12.567775614403887,22.635632028835932 c-2.886270349058397,5.045291476306804 -3.3408011126896406,4.9771118617621175 -6.477063381745222,-0.13635922908937315 C5.626035360328544,97.86338384225297 5.28513728760511,97.29522038771393 4.557888065795115,96.04526078772801 z" stroke-linecap="round" stroke-width="0" id="svg_16"></path> </g> <g stroke-width="0" id="svg_17"> <path style="stroke: none; stroke-width: 1; stroke-dasharray: none; stroke-linecap: butt; stroke-dashoffset: 0; stroke-linejoin: miter; stroke-miterlimit: 4; fill: rgb(255,225,26); fill-rule: nonzero; opacity: 1;" d="M41.60214400187742,19.411372024721913 c1.1136003708965472,-4.204409563589004 4.5680341744940005,-5.386189549030237 9.408786807166743,-5.272556858122426 c8.295186436270196,0.18181230545249757 16.613099410721954,-0.22726538181562192 24.90828584699215,-0.52271037817593 c3.068082654510895,-0.11363269090781095 5.158924167214615,0.8181553745362387 6.795234916287092,3.590793032686826 c8.227006821725512,13.863188290752932 16.567646334358834,27.658196966961178 24.97646546153684,41.43047910498786 c1.8863026690696614,3.1135357308740192 1.2954126763490448,3.7726053381393228 -2.3408334327009053,4.363495330859939 c-7.886108749002078,1.24995959998592 -12.522322538040763,-1.5681311345277908 -16.067662494364466,-8.74971719990144 c-4.15895648722588,-8.43154566535957 -9.704231803527053,-16.181295185272276 -14.476804821655112,-24.340122392453097 c-1.340865752712169,-2.2953803563377804 -2.931723425421522,-3.0453561163293332 -5.522548778119611,-2.9544499636030843 c-8.63608450899363,0.3181715345418705 -17.249442479805698,0.47725730181280596 -25.885526988799327,0.5454369163574925 c-5.81799377447992,0.04545307636312437 -5.999806079932416,-0.3863511490865572 -3.1362622690555817,-5.658908007208983 C40.57944978370712,21.252221617428432 40.89762131824898,20.684058162889414 41.60214400187742,19.411372024721913 z" stroke-linecap="round" stroke-width="0" id="svg_18"></path> </g> <g stroke-width="0" id="svg_19"> <path style="stroke: none; stroke-width: 1; stroke-dasharray: none; stroke-linecap: butt; stroke-dashoffset: 0; stroke-linejoin: miter; stroke-miterlimit: 4; fill: rgb(255,225,26); fill-rule: nonzero; opacity: 1;" d="M68.4876377048515,38.41075971497165 c-9.363333730803621,0.04545307636312437 -18.726667461607242,0.4090776872681193 -28.090001192410856,0.43180422544968156 c-2.0908415127037205,-3.5680664945052625 -5.999806079932416,-5.977079541750855 -10.431481025337042,-5.977079541750855 c-6.681602225379281,0 -12.113244850772643,5.431642625393361 -12.113244850772643,12.113244850772643 s5.431642625393361,12.113244850772643 12.113244850772643,12.113244850772643 c4.181683025407441,0 7.863382210820516,-2.1135680508852834 10.045129876250487,-5.340736472667113 c6.363430690837411,-0.24999191999718406 12.749587919856385,-0.5681634545390546 19.067565534330672,-0.09090615272624879 c6.65887568719772,0.49998383999436824 9.726958341708613,-2.840817272695273 12.431416385314515,-7.7724760580942664 C73.8965537920633,39.456180471323535 73.44202302843206,38.38803317679009 68.4876377048515,38.41075971497165 zM29.966155487103606,51.31943340209898 c-0.5908899927206168,0 -1.1817799854412336,-0.09090615272624879 -1.7272169017987258,-0.22726538181562192 c-2.659004967242775,-0.7499757599915521 -4.613487250857124,-3.2044418836002677 -4.613487250857124,-6.113438770840227 c0,-3.4998868799605765 2.840817272695273,-6.3407041526558485 6.3407041526558485,-6.3407041526558485 c1.0454207563518603,0 2.0453884363405965,0.24999191999718406 2.931723425421522,0.7045226836284277 c2.0226618981590345,1.0681472945334227 3.4089807272343275,3.1817153454187057 3.4089807272343275,5.636181469027422 C36.30685963975946,48.47861612940369 33.46604236706418,51.31943340209898 29.966155487103606,51.31943340209898 z" stroke-linecap="round" stroke-width="0" id="svg_20"></path> </g> <g stroke-width="0" id="svg_21"> <path style="stroke: none; stroke-width: 1; stroke-dasharray: none; stroke-linecap: butt; stroke-dashoffset: 0; stroke-linejoin: miter; stroke-miterlimit: 4; fill: rgb(255,225,26); fill-rule: nonzero; opacity: 1;" d="M40.7385357644055,82.5456952944217 c-2.590825352698089,-4.295315716315252 -3.7726053381393228,-4.454401483586189 -6.227071461748038,-0.15908576727093532 c-5.045291476306804,8.74971719990144 -9.749684879890177,17.68124670525538 -14.86315597074167,26.385510828793695 c-0.09090615272624879,0.15908576727093532 -0.18181230545249757,0.3181715345418705 -0.27271845817874624,0.4545307636312438 c-6.499789919926785,0.18181230545249757 -11.74962023986765,5.545275316301172 -11.74962023986765,12.090518312591083 c0,6.681602225379281 5.431642625393361,12.113244850772643 12.113244850772643,12.113244850772643 s12.113244850772643,-5.431642625393361 12.113244850772643,-12.113244850772643 c0,-1.9544822836143476 -0.47725730181280596,-3.818058414502447 -1.2954126763490448,-5.454369163574924 c3.4089807272343275,-6.317977614474287 6.613422610834596,-12.772314458037949 10.681472945334226,-18.658487847062553 C44.988398404357625,91.70449018159127 43.624806113463904,87.3637213889129 40.7385357644055,82.5456952944217 zM25.73902056457446,123.31710479214428 c-0.840881912717801,2.522645738153402 -3.2271684217818297,4.363495330859939 -6.022532618113979,4.363495330859939 c-3.4998868799605765,0 -6.3407041526558485,-2.840817272695273 -6.3407041526558485,-6.3407041526558485 c0,-2.613551890879651 1.5908576727093529,-4.8862057090358695 3.863511490865571,-5.840720312661482 c0.7499757599915521,-0.3181715345418705 1.5908576727093529,-0.49998383999436824 2.477192661790278,-0.49998383999436824 c3.4998868799605765,0 6.3407041526558485,2.840817272695273 6.3407041526558485,6.3407041526558485 C26.057192099116328,122.02169211579519 25.943559408208515,122.68076172306053 25.73902056457446,123.31710479214428 z" stroke-linecap="round" stroke-width="0" id="svg_22"></path> </g> <g stroke-width="0" id="svg_23"> <path style="stroke: none; stroke-width: 1; stroke-dasharray: none; stroke-linecap: butt; stroke-dashoffset: 0; stroke-linejoin: miter; stroke-miterlimit: 4; fill: rgb(255,225,26); fill-rule: nonzero; opacity: 1;" d="M124.64491346862462,46.45595206960155 c-4.7043934035833725,-8.454272203541134 -9.726958341708613,-16.726732101629764 -14.385898668928862,-25.203730843352464 c1.4317719054384175,-1.9772088217959096 2.2499272799746564,-4.408948407223063 2.2499272799746564,-7.022500298102714 c0,-6.681602225379281 -5.431642625393361,-12.113244850772643 -12.113244850772643,-12.113244850772643 s-12.113244850772643,5.431642625393361 -12.113244850772643,12.113244850772643 c0,5.886173389024605 4.227136101770567,10.8178321744236 9.817864494434865,11.885979468957022 c3.6362461090499494,6.0907122326586665 7.454304523552396,12.06779177440952 10.363301410792356,18.476675541610053 c2.772637658150586,6.0907122326586665 7.181586065373651,7.158859527192088 12.81776753440107,7.136132989010525 C126.3266772940602,51.705782389542435 127.05392651587022,50.773994324098396 124.64491346862462,46.45595206960155 zM106.57731561428267,15.684219371766375 c-0.6590696072653035,2.795364196332149 -3.1817153454187057,4.8862057090358695 -6.181618385384914,4.8862057090358695 c-2.7044580436059,0 -5.045291476306804,-1.7272169017987258 -5.931626465387731,-4.113503410862756 c-0.24999191999718406,-0.6817961454468656 -0.4090776872681193,-1.4317719054384175 -0.4090776872681193,-2.2272007417930944 c0,-3.4998868799605765 2.840817272695273,-6.3407041526558485 6.3407041526558485,-6.3407041526558485 c3.4998868799605765,0 6.3407041526558485,2.840817272695273 6.3407041526558485,6.3407041526558485 C106.75912791973516,14.729704768140778 106.69094830519049,15.206962069953562 106.57731561428267,15.684219371766375 z" stroke-linecap="round" stroke-width="0" id="svg_24"></path> </g> <g stroke-width="0" id="svg_25"> <path style="stroke: none; stroke-width: 1; stroke-dasharray: none; stroke-linecap: butt; stroke-dashoffset: 0; stroke-linejoin: miter; stroke-miterlimit: 4; fill: rgb(255,225,26); fill-rule: nonzero; opacity: 1;" d="M160.87101409458708,48.50134148515821 c-6.681602225379281,0 -12.113244850772643,5.431642625393361 -12.113244850772643,12.113244850772643 c0,1.386318829075293 0.22726538181562192,2.7044580436059 0.6590696072653035,3.931691105410258 v0 c-3.5453399563237005,6.363430690837411 -6.863414530831779,12.863220610764197 -11.022371018057658,18.772120537970363 c-3.863511490865571,5.454369163574924 -2.568098814516527,9.817864494434865 0.27271845817874624,14.658617127107608 c2.545372276334964,4.340768792678378 3.727152261776198,4.499854559949313 6.227071461748038,0.24999191999718406 c5.022564938125243,-8.476998741722694 9.726958341708613,-17.135809788897888 14.79497635619698,-25.567355454257456 c0.3863511490865572,0.04545307636312437 0.7727022981731143,0.04545307636312437 1.1590534472596712,0.04545307636312437 c6.681602225379281,0 12.113244850772643,-5.431642625393361 12.113244850772643,-12.113244850772643 S167.55261631996635,48.50134148515821 160.87101409458708,48.50134148515821 zM162.484598305478,66.7280251067711 c-0.52271037817593,0.13635922908937315 -1.0454207563518603,0.20453884363405966 -1.6135842108909149,0.20453884363405966 c-3.4998868799605765,0 -6.3407041526558485,-2.840817272695273 -6.3407041526558485,-6.3407041526558485 c0,-1.3181392145306066 0.4090776872681193,-2.545372276334964 1.1136003708965472,-3.5680664945052625 c1.1363269090781092,-1.6817638254356018 3.068082654510895,-2.772637658150586 5.227103781759302,-2.772637658150586 c3.4998868799605765,0 6.3407041526558485,2.840817272695273 6.3407041526558485,6.3407041526558485 C167.2117182472429,63.546309761352404 165.21178288726546,66.02350242314267 162.484598305478,66.7280251067711 z" stroke-linecap="round" stroke-width="0" id="svg_26"></path> </g> <g stroke-width="0" id="svg_27"> <path style="stroke: none; stroke-width: 1; stroke-dasharray: none; stroke-linecap: butt; stroke-dashoffset: 0; stroke-linejoin: miter; stroke-miterlimit: 4; fill: rgb(255,225,26); fill-rule: nonzero; opacity: 1;" d="M150.9849663154609,124.02162210932738 c-3.8862380290471337,0 -7.363398370826147,1.8635761308880991 -9.590599112619243,4.7271199417649346 c-7.158859527192088,0.15908576727093532 -14.317719054384176,0.5454369163574925 -21.408398967031577,-0.09090615272624879 c-6.65887568719772,-0.5908899927206168 -9.772411418071739,2.727184581787462 -12.522322538040763,7.6133902908233315 c-2.454466123608716,4.386221869041502 -2.0226618981590345,5.477095701756487 2.931723425421522,5.499822239938048 c9.954223723524235,0.06817961454468657 19.90844744704847,-0.22726538181562192 29.86267117057271,-0.09090615272624879 c2.0226618981590345,3.863511490865571 6.067985694477103,6.5225164581083455 10.726926021697352,6.5225164581083455 c6.681602225379281,0 12.113244850772643,-5.431642625393361 12.113244850772643,-12.113244850772643 C163.09821116623354,129.45326473472073 157.66656854084016,124.02162210932738 150.9849663154609,124.02162210932738 zM150.9849663154609,142.45284457457433 c-1.5681311345277908,0 -2.999903039966208,-0.5681634545390546 -4.113503410862756,-1.5226780581646664 c-1.363592290893731,-1.1590534472596712 -2.2272007417930944,-2.886270349058397 -2.2272007417930944,-4.8180260944911835 c0,-3.4998868799605765 2.840817272695273,-6.3407041526558485 6.3407041526558485,-6.3407041526558485 h0.02272653818156219 c3.4998868799605765,0 6.3407041526558485,2.840817272695273 6.3407041526558485,6.3407041526558485 C157.32567046811673,139.61202730187904 154.48485319542146,142.45284457457433 150.9849663154609,142.45284457457433 z" stroke-linecap="round" stroke-width="0" id="svg_28"></path> </g> <g stroke-width="0" id="svg_29"> <path style="stroke: none; stroke-width: 1; stroke-dasharray: none; stroke-linecap: butt; stroke-dashoffset: 0; stroke-linejoin: miter; stroke-miterlimit: 4; fill: rgb(255,225,26); fill-rule: nonzero; opacity: 1;" d="M82.100838208393,153.83884378087606 c-3.681699185413074,-5.999806079932416 -7.567937214460207,-11.931432545320146 -10.545113716244852,-18.272136697976 c-2.840817272695273,-6.0452591562955424 -7.272492218099899,-7.06795337446584 -12.885947148945759,-6.97704722173959 c-5.022564938125243,0.06817961454468657 -5.749814159935233,1.0226942181702983 -3.2953480363265166,5.295283396303989 c4.7952995563096215,8.386092588996446 9.908770647161113,16.590372872540392 14.658617127107608,24.97646546153684 c-1.363592290893731,1.9544822836143476 -2.1590211272484074,4.340768792678378 -2.1590211272484074,6.886141069013342 c0,6.681602225379281 5.431642625393361,12.113244850772643 12.113244850772643,12.113244850772643 s12.113244850772643,-5.431642625393361 12.113244850772643,-12.113244850772643 C92.10051500828037,159.81592332262693 87.75974621560198,154.8615379990464 82.100838208393,153.83884378087606 zM79.98727015750772,172.11098047885207 c-3.4998868799605765,0 -6.3407041526558485,-2.840817272695273 -6.3407041526558485,-6.3407041526558485 c0,-0.4545307636312438 0.04545307636312437,-0.9090615272624873 0.13635922908937315,-1.340865752712169 c0.613616530902179,-2.863543810876835 3.1589888072371437,-5.022564938125243 6.2043449235664765,-5.022564938125243 c2.7044580436059,0 5.022564938125243,1.7044903636171638 5.931626465387731,4.090776872681193 v0 c0.24999191999718406,0.7045226836284277 0.4090776872681193,1.45449844361998 0.4090776872681193,2.2499272799746564 C86.32797431016355,169.27016320615678 83.4871570374683,172.11098047885207 79.98727015750772,172.11098047885207 z" stroke-linecap="round" stroke-width="0" id="svg_30"></path> </g> </g> </g></g></svg> 